# xmcd CD database file
#
# Track frame offsets:
#	150
#	10855
#	21517
#	41240
#	53072
#	70832
#	81720
#	93115
#	106970
#	120765
#	133035
#	147980
#
# Disc length: 2179 seconds
#
# Revision: 4
# Processed by: cddbd v1.5.2PL0 Copyright (c) Steve Scherf et al.
# Submitted via: CDex 1.70beta2
#
DISCID=a108810c
DTITLE=Modugno, Domenico - I grandi successi originali CD2
DYEAR=2000
DGENRE=Pop
TTITLE0=Piove (Ciao ciao Bambina)
TTITLE1=Notte di luna calante
TTITLE2=La lontananza
TTITLE3=Libero
TTITLE4=Come stai
TTITLE5='O ccafè
TTITLE6=Dio come ti amo!
TTITLE7=Giovane amore
TTITLE8=L'anniversario
TTITLE9=Lazzarella
TTITLE10=Amara terra mia
TTITLE11=Il posto mio
EXTD=YEAR: 2000
EXTT0=
EXTT1=
EXTT2=
EXTT3=
EXTT4=
EXTT5=
EXTT6=
EXTT7=
EXTT8=
EXTT9=
EXTT10=
EXTT11=
PLAYORDER=
